/* XPM */
static char * tomato_xpm[] = {
"32 32 633 2",
"  	c None",
". 	c #A8AE95",
"+ 	c #838A73",
"@ 	c #737A61",
"# 	c #84916B",
"$ 	c #949989",
"% 	c #42531E",
"& 	c #51642E",
"* 	c #828B73",
"= 	c #BFC0B9",
"- 	c #C3C7BA",
"; 	c #6B8348",
"> 	c #8F9983",
", 	c #92987F",
"' 	c #6E795C",
") 	c #A1A496",
"! 	c #526430",
"~ 	c #838B74",
"{ 	c #A4AE9A",
"] 	c #5C7930",
"^ 	c #6F785D",
"/ 	c #A7AD9C",
"( 	c #B3B1A4",
"_ 	c #68744F",
": 	c #C2C1BD",
"< 	c #8F9380",
"[ 	c #606E4A",
"} 	c #5F7348",
"| 	c #586F35",
"1 	c #929685",
"2 	c #9C9B87",
"3 	c #4E5F28",
"4 	c #969985",
"5 	c #9B9F8F",
"6 	c #C4C3B6",
"7 	c #596846",
"8 	c #BEBEB8",
"9 	c #A2A698",
"0 	c #536534",
"a 	c #596A3B",
"b 	c #6F7F4D",
"c 	c #838872",
"d 	c #A5785D",
"e 	c #EE918C",
"f 	c #EC827E",
"g 	c #EB8985",
"h 	c #959C87",
"i 	c #6E7755",
"j 	c #757E64",
"k 	c #768858",
"l 	c #748557",
"m 	c #657648",
"n 	c #757C5D",
"o 	c #545C27",
"p 	c #57592D",
"q 	c #66713C",
"r 	c #766A29",
"s 	c #606928",
"t 	c #CA4F1F",
"u 	c #F6482A",
"v 	c #F44F3B",
"w 	c #F2574A",
"x 	c #EC6D67",
"y 	c #EB807C",
"z 	c #838975",
"A 	c #827D67",
"B 	c #9C8F72",
"C 	c #848A4B",
"D 	c #688836",
"E 	c #709040",
"F 	c #5B611A",
"G 	c #52360A",
"H 	c #50350E",
"I 	c #746925",
"J 	c #A74F1E",
"K 	c #F4421A",
"L 	c #F94C25",
"M 	c #FA4C2B",
"N 	c #F94A2E",
"O 	c #F74831",
"P 	c #F34936",
"Q 	c #EC554D",
"R 	c #B38275",
"S 	c #814B21",
"T 	c #70592D",
"U 	c #716532",
"V 	c #6B6324",
"W 	c #836136",
"X 	c #792007",
"Y 	c #981E0D",
"Z 	c #CE3B13",
"` 	c #F8552E",
" .	c #FA4216",
"..	c #FB542F",
"+.	c #FB6046",
"@.	c #FB583D",
"#.	c #FB4E32",
"$.	c #FB523B",
"%.	c #F94F3A",
"&.	c #F14635",
"*.	c #EE6E69",
"=.	c #F58A87",
"-.	c #FB380A",
";.	c #F93C21",
">.	c #D41910",
",.	c #D2210A",
"'.	c #EC5C40",
").	c #F76A50",
"!.	c #ED2012",
"~.	c #F0240F",
"{.	c #FB6751",
"].	c #FB725F",
"^.	c #FC6652",
"/.	c #FC624E",
"(.	c #FC6452",
"_.	c #FB604E",
":.	c #FC5A47",
"<.	c #FC5443",
"[.	c #FB5343",
"}.	c #FB503C",
"|.	c #F34431",
"1.	c #EF8683",
"2.	c #F97C79",
"3.	c #FA311E",
"4.	c #FA280D",
"5.	c #FA3C24",
"6.	c #F71B05",
"7.	c #FB442A",
"8.	c #FC614E",
"9.	c #FB604D",
"0.	c #FB351B",
"a.	c #FC533D",
"b.	c #FC614F",
"c.	c #FB594A",
"d.	c #FC5445",
"e.	c #FB5243",
"f.	c #FB5043",
"g.	c #FC5245",
"h.	c #FB4B3D",
"i.	c #FB493B",
"j.	c #FB4A3B",
"k.	c #FC4A3B",
"l.	c #FA4E3A",
"m.	c #F0483A",
"n.	c #F49E9D",
"o.	c #F87A76",
"p.	c #F9564E",
"q.	c #FA3727",
"r.	c #FB3319",
"s.	c #FB2D10",
"t.	c #F93D2A",
"u.	c #FB7672",
"v.	c #FC8482",
"w.	c #FB6761",
"x.	c #FB4A3E",
"y.	c #FB3018",
"z.	c #FB2A0F",
"A.	c #FB2810",
"B.	c #FA3622",
"C.	c #FB453C",
"D.	c #FB504E",
"E.	c #FB3E3E",
"F.	c #FA3433",
"G.	c #FA322B",
"H.	c #FB372B",
"I.	c #FB4D40",
"J.	c #F54A38",
"K.	c #F48A87",
"L.	c #F68B89",
"M.	c #F8605A",
"N.	c #FA3E32",
"O.	c #FA2C1A",
"P.	c #FB301B",
"Q.	c #FA483D",
"R.	c #FB9E99",
"S.	c #FBE0DC",
"T.	c #FCDFD9",
"U.	c #FBA7A3",
"V.	c #FB544E",
"W.	c #FB1D08",
"X.	c #FB1203",
"Y.	c #FB0C02",
"Z.	c #FA1B0F",
"`.	c #F84436",
" +	c #FB8E8A",
".+	c #FC8E90",
"++	c #FB656A",
"@+	c #FB3942",
"#+	c #FA262E",
"$+	c #FA221F",
"%+	c #FA3025",
"&+	c #FA4E44",
"*+	c #F25043",
"=+	c #F67874",
"-+	c #F95048",
";+	c #FA3122",
">+	c #FB220F",
",+	c #FA2913",
"'+	c #F95045",
")+	c #F9B1A8",
"!+	c #FCF9F3",
"~+	c #FCEBE5",
"{+	c #FB9996",
"]+	c #FA3B35",
"^+	c #FA1003",
"/+	c #FA0A01",
"(+	c #FB0402",
"_+	c #FA1A13",
":+	c #FB736D",
"<+	c #FCCCC6",
"[+	c #FBC6C1",
"}+	c #FC7C7E",
"|+	c #FB444F",
"1+	c #FA222E",
"2+	c #F7131E",
"3+	c #F61716",
"4+	c #F9453D",
"5+	c #F5564A",
"6+	c #E5A1A0",
"7+	c #F76B66",
"8+	c #FA2617",
"9+	c #FB0F04",
"0+	c #FA1E0A",
"a+	c #F95D52",
"b+	c #F98F8A",
"c+	c #FCD8D4",
"d+	c #FBACAC",
"e+	c #FB5253",
"f+	c #F80E0B",
"g+	c #F40402",
"h+	c #F20201",
"i+	c #F30101",
"j+	c #F61514",
"k+	c #FB686A",
"l+	c #FBB3B2",
"m+	c #FCC1BF",
"n+	c #FC8384",
"o+	c #FA3F48",
"p+	c #F31727",
"q+	c #EF030A",
"r+	c #F1090A",
"s+	c #F6342D",
"t+	c #FA5E57",
"u+	c #F78884",
"v+	c #E37776",
"w+	c #F75D57",
"x+	c #FA3D33",
"y+	c #F91D10",
"z+	c #F70502",
"A+	c #F9271A",
"B+	c #F91913",
"C+	c #FB6A6D",
"D+	c #FB7279",
"E+	c #F83F46",
"F+	c #F21112",
"G+	c #EF0000",
"H+	c #E90001",
"I+	c #E70102",
"J+	c #E70000",
"K+	c #E80103",
"L+	c #F22A34",
"M+	c #F9606C",
"N+	c #FB747D",
"O+	c #F8575E",
"P+	c #F12735",
"Q+	c #ED0712",
"R+	c #E70507",
"S+	c #E60101",
"T+	c #F12521",
"U+	c #F95A57",
"V+	c #F98986",
"W+	c #F05350",
"X+	c #F94840",
"Y+	c #FA3228",
"Z+	c #F51005",
"`+	c #F20301",
" @	c #F10301",
".@	c #F10C09",
"+@	c #F1161E",
"@@	c #ED0911",
"#@	c #E80001",
"$@	c #E70001",
"%@	c #E10000",
"&@	c #E00101",
"*@	c #DF0000",
"=@	c #DC0000",
"-@	c #E00002",
";@	c #E50D1D",
">@	c #E81C30",
",@	c #E81428",
"'@	c #E20314",
")@	c #E51216",
"!@	c #DF0102",
"~@	c #DE0000",
"{@	c #EB1C1D",
"]@	c #F85857",
"^@	c #FA7F7D",
"/@	c #F65049",
"(@	c #FA4B44",
"_@	c #F83630",
":@	c #F10D03",
"<@	c #EC0301",
"[@	c #EA0803",
"}@	c #EA3431",
"|@	c #E40001",
"1@	c #D80000",
"2@	c #DB0000",
"3@	c #D30000",
"4@	c #D40000",
"5@	c #D70002",
"6@	c #DA0004",
"7@	c #D60001",
"8@	c #DD0202",
"9@	c #E21A19",
"0@	c #DA0100",
"a@	c #EB2F2E",
"b@	c #F96866",
"c@	c #FA8F8E",
"d@	c #F38A88",
"e@	c #F85B56",
"f@	c #FA514C",
"g@	c #F8423C",
"h@	c #F0251D",
"i@	c #E60302",
"j@	c #E70E08",
"k@	c #E30301",
"l@	c #D60000",
"m@	c #DA0000",
"n@	c #D00000",
"o@	c #CC0000",
"p@	c #CA0000",
"q@	c #C90000",
"r@	c #CB0000",
"s@	c #D10000",
"t@	c #CF0001",
"u@	c #DC1212",
"v@	c #EF4344",
"w@	c #F96969",
"x@	c #FA9291",
"y@	c #F19998",
"z@	c #F67573",
"A@	c #F95C58",
"B@	c #F9524E",
"C@	c #F4342E",
"D@	c #E41206",
"E@	c #E00000",
"F@	c #D90000",
"G@	c #CE0000",
"H@	c #CE0001",
"I@	c #C90001",
"J@	c #C10000",
"K@	c #C40000",
"L@	c #C30000",
"M@	c #C30001",
"N@	c #CF0000",
"O@	c #D60507",
"P@	c #E23132",
"Q@	c #EF4F50",
"R@	c #F86C6C",
"S@	c #FA9392",
"T@	c #EEA7A6",
"U@	c #F68280",
"V@	c #FA6663",
"W@	c #FA5D59",
"X@	c #F44744",
"Y@	c #E82C25",
"Z@	c #E00604",
"`@	c #CD0000",
" #	c #C60000",
".#	c #CC0001",
"+#	c #BA0000",
"@#	c #BB0000",
"##	c #BD0000",
"$#	c #BF0000",
"%#	c #C50001",
"&#	c #CE0305",
"*#	c #D40D0E",
"=#	c #DF2629",
"-#	c #E74143",
";#	c #EF5253",
">#	c #F56565",
",#	c #F98585",
"'#	c #F68A88",
")#	c #FA6F6C",
"!#	c #F9605C",
"~#	c #F44A4A",
"{#	c #E83837",
"]#	c #E21E1D",
"^#	c #D20402",
"/#	c #CB0001",
"(#	c #C70000",
"_#	c #C40001",
":#	c #C00000",
"<#	c #B30001",
"[#	c #AD0000",
"}#	c #B80000",
"|#	c #B30000",
"1#	c #C60608",
"2#	c #CE1A1E",
"3#	c #DB292B",
"4#	c #E23939",
"5#	c #E64648",
"6#	c #EC5555",
"7#	c #F57070",
"8#	c #F9908F",
"9#	c #F69494",
"0#	c #FB7473",
"a#	c #F95F5A",
"b#	c #F24E4E",
"c#	c #EB4140",
"d#	c #E72E32",
"e#	c #DA1B19",
"f#	c #CD0905",
"g#	c #C70101",
"h#	c #B00000",
"i#	c #AB0000",
"j#	c #B10001",
"k#	c #B10000",
"l#	c #C50709",
"m#	c #CE1D20",
"n#	c #D3292E",
"o#	c #D83237",
"p#	c #E23C3F",
"q#	c #E3484B",
"r#	c #EC595A",
"s#	c #F57374",
"t#	c #F89796",
"u#	c #F8ACAC",
"v#	c #FA8A89",
"w#	c #F96C69",
"x#	c #F25654",
"y#	c #E94544",
"z#	c #E63839",
"A#	c #DF2D30",
"B#	c #D72323",
"C#	c #CF1612",
"D#	c #C70A05",
"E#	c #BD0401",
"F#	c #BD0101",
"G#	c #C10001",
"H#	c #B80100",
"I#	c #B20201",
"J#	c #B30101",
"K#	c #B50404",
"L#	c #C00D0E",
"M#	c #CB1E1F",
"N#	c #CF2B2B",
"O#	c #D33332",
"P#	c #DB3C38",
"Q#	c #E04241",
"R#	c #E34D4E",
"S#	c #EC5E5F",
"T#	c #F47676",
"U#	c #F89998",
"V#	c #F99190",
"W#	c #F97472",
"X#	c #F35C5A",
"Y#	c #EA4D4D",
"Z#	c #E43F41",
"`#	c #DF3437",
" $	c #DB2E31",
".$	c #D2262B",
"+$	c #CE2123",
"@$	c #C81F1B",
"#$	c #C81913",
"$$	c #CB1110",
"%$	c #C91213",
"&$	c #C61917",
"*$	c #C31A1C",
"=$	c #C51B22",
"-$	c #C92326",
";$	c #CF292C",
">$	c #D03132",
",$	c #D43A36",
"'$	c #DC3F3A",
")$	c #DD4947",
"!$	c #E15251",
"~$	c #E95E5E",
"{$	c #F37676",
"]$	c #F99896",
"^$	c #F8817F",
"/$	c #F56765",
"($	c #EF5756",
"_$	c #E54748",
":$	c #DE3E3F",
"<$	c #DB3337",
"[$	c #D42E33",
"}$	c #D0292B",
"|$	c #CC262B",
"1$	c #CE272A",
"2$	c #D12527",
"3$	c #CF2526",
"4$	c #C72829",
"5$	c #C52A2D",
"6$	c #CA2A2F",
"7$	c #CB2E31",
"8$	c #D12F34",
"9$	c #D33934",
"0$	c #D7403B",
"a$	c #D94141",
"b$	c #D94746",
"c$	c #E0514C",
"d$	c #EC6868",
"e$	c #F48A89",
"f$	c #F88B89",
"g$	c #F57775",
"h$	c #F1625F",
"i$	c #E95351",
"j$	c #E14841",
"k$	c #DE3D3D",
"l$	c #DA3839",
"m$	c #D43135",
"n$	c #D22E31",
"o$	c #CE2C32",
"p$	c #D12D2F",
"q$	c #D32E2F",
"r$	c #CC2E31",
"s$	c #C82F33",
"t$	c #CA3234",
"u$	c #CA3636",
"v$	c #D03A3A",
"w$	c #D03D3C",
"x$	c #D3403C",
"y$	c #D7413F",
"z$	c #DB4441",
"A$	c #E05651",
"B$	c #EE817E",
"C$	c #F79F9D",
"D$	c #F68886",
"E$	c #F47A77",
"F$	c #EF6662",
"G$	c #E95653",
"H$	c #E14545",
"I$	c #DD413E",
"J$	c #D83C39",
"K$	c #D33737",
"L$	c #D03836",
"M$	c #D53A35",
"N$	c #D9302C",
"O$	c #D02417",
"P$	c #CF3835",
"Q$	c #CE3B38",
"R$	c #CF3F3A",
"S$	c #CF3C39",
"T$	c #D13E39",
"U$	c #D43F39",
"V$	c #D54139",
"W$	c #D74441",
"X$	c #E16460",
"Y$	c #F59E9A",
"Z$	c #F48B87",
"`$	c #F17A76",
" %	c #EC6461",
".%	c #E55452",
"+%	c #E04B47",
"@%	c #D93B39",
"#%	c #D63333",
"$%	c #D83D3C",
"%%	c #D93D37",
"&%	c #DF412D",
"*%	c #DA3E21",
"=%	c #D23C38",
"-%	c #D23E38",
";%	c #D03D37",
">%	c #D13B35",
",%	c #D03732",
"'%	c #D13D34",
")%	c #D1433E",
"!%	c #DB5A57",
"~%	c #E88682",
"{%	c #F5A7A3",
"]%	c #F38E8A",
"^%	c #F17F79",
"/%	c #EC6A63",
"(%	c #E65C51",
"_%	c #E45141",
":%	c #E84503",
"<%	c #DF4133",
"[%	c #DA4541",
"}%	c #DC413A",
"|%	c #DB413C",
"1%	c #D43F3A",
"2%	c #D03B36",
"3%	c #D03733",
"4%	c #CE3631",
"5%	c #CE3731",
"6%	c #CE3F3D",
"7%	c #D24F4D",
"8%	c #DD726F",
"9%	c #F49C97",
"0%	c #F28B85",
"a%	c #F07D75",
"b%	c #EB6C63",
"c%	c #E76458",
"d%	c #E2563F",
"e%	c #DC473C",
"f%	c #D73D38",
"g%	c #D63733",
"h%	c #D53A38",
"i%	c #CF3836",
"j%	c #CC3B38",
"k%	c #CB4341",
"l%	c #CC4F4F",
"m%	c #CF5D5D",
"n%	c #D36464",
"o%	c #F0938D",
"p%	c #EB807B",
"q%	c #E05D56",
"r%	c #D5463F",
"s%	c #CF3934",
"t%	c #CB3732",
"u%	c #C93734",
"v%	c #C73B3B",
"w%	c #C44344",
"x%	c #C34B4C",
"y%	c #C2595B",
"z%	c #C17073",
"A%	c #CA8082",
"B%	c #D28687",
"C%	c #E4B0B2",
"D%	c #D37D7F",
"E%	c #BE4848",
"F%	c #BA302E",
"G%	c #B72C2C",
"H%	c #B73031",
"I%	c #B6383A",
"J%	c #B64345",
"K%	c #B65053",
"L%	c #B75E61",
"M%	c #BB7376",
"N%	c #C48E91",
"O%	c #CFA0A2",
"P%	c #D4A0A1",
"            . +         @           #                           ",
"            $ % & * =   - ; >       ,                           ",
"              ' $ ) ! ~ { ] ^       /                           ",
"  (             _ : < [ } | 1     2                             ",
"    3 4 5       6 7 8 9 0 a b   c d e f g                       ",
"        h i j   k l m n o p q r s t u v w x y                   ",
"          3 z A B C D E F G H I J K L M N O P Q                 ",
"              R S T U V W X Y Z `  ...+.@.#.$.%.&.*.            ",
"            =.-.;.>.,.'.).!.~.{.].^./.(._.:.<.[.}.|.1.          ",
"          2.3.4.5.6.7.8.9.0.a.b.c.d.e.f.g.h.i.j.k.l.m.          ",
"      n.o.p.q.r.s.t.u.v.w.x.y.z.A.A.B.C.D.E.F.G.H.I.J.K.        ",
"      L.M.N.O.P.Q.R.S.T.U.V.W.X.Y.Z.`. +.+++@+#+$+%+&+*+        ",
"      =+-+;+>+,+'+)+!+~+{+]+^+/+(+_+:+<+[+}+|+1+2+3+4+5+        ",
"    6+7+4+8+9+0+a+b+c+d+e+f+g+h+i+j+k+l+m+n+o+p+q+r+s+t+u+      ",
"    v+w+x+y+z+A+B+C+D+E+F+G+H+I+J+K+L+M+N+O+P+Q+R+S+T+U+V+      ",
"    W+X+Y+Z+`+ @.@+@@@#@J+$@%@&@*@=@-@;@>@,@'@)@!@~@{@]@^@      ",
"    /@(@_@:@<@[@}@|@&@=@*@*@1@2@1@3@3@4@5@6@7@8@9@0@a@b@c@      ",
"  d@e@f@g@h@i@j@k@=@l@3@1@m@n@o@p@q@r@r@o@n@s@t@4@u@v@w@x@      ",
"  y@z@A@B@C@D@E@F@4@G@H@n@3@I@J@J@J@K@L@M@I@N@H@O@P@Q@R@S@      ",
"  T@U@V@W@X@Y@Z@4@`@q@q@ #.#K@+#+#J@@###$#%#&#*#=#-#;#>#,#      ",
"    '#)#!#~#{#]#^#/#(#_#$#K@:#<#[#}#|#+#:#1#2#3#4#5#6#7#8#      ",
"    9#0#a#b#c#d#e#f#g#J@+###$#h#i#j#k#}#l#m#n#o#p#q#r#s#t#      ",
"    u#v#w#x#y#z#A#B#C#D#E#F#G#H#I#J#K#L#M#N#O#P#Q#R#S#T#U#      ",
"      V#W#X#Y#Z#`# $.$+$@$#$$$%$&$*$=$-$;$>$,$'$)$!$~${$        ",
"      ]$^$/$($_$:$<$[$}$|$1$2$3$4$5$6$7$8$9$0$a$b$c$d$e$        ",
"        f$g$h$i$j$k$l$m$n$o$p$q$r$s$t$u$v$w$x$y$z$A$B$          ",
"        C$D$E$F$G$H$I$J$K$L$M$N$O$P$Q$R$S$T$U$V$W$X$            ",
"          Y$Z$`$ %.%+%@%#%$%%%&%*%=%-%;%>%,%'%)%!%~%            ",
"            {%]%^%/%(%_%:%<%[%}%|%1%2%3%4%5%6%7%8%              ",
"              9%0%a%b%c%d%e%f%g%h%i%j%k%l%m%n%                  ",
"                  o%p%q%r%s%t%u%v%w%x%y%z%A%B%                  ",
"                  C%D%E%F%G%H%I%J%K%L%M%N%O%P%                  "};
